<svg width="19" height="19" viewBox="0 0 19 19" fill="none" xmlns="http://www.w3.org/2000/svg">
<g id="history">
<path id="Vector" d="M2.375 2.375V6.33333H6.33333" stroke="white" stroke-width="2" stroke-linecap="round" stroke-linejoin="round"/>
<path id="Vector_2" d="M2.41458 10.2916C2.58994 11.8795 3.29389 13.3625 4.41337 14.5022C5.53285 15.642 7.0029 16.3725 8.58744 16.5763C10.172 16.7801 11.779 16.4455 13.1505 15.6262C14.522 14.8069 15.5784 13.5504 16.15 12.0586C16.7215 10.5667 16.7751 8.92606 16.3021 7.40009C15.8291 5.87412 14.857 4.55138 13.5419 3.64432C12.2268 2.73725 10.645 2.29849 9.05051 2.3985C7.45605 2.49851 5.94147 3.13148 4.75 4.19577L2.375 6.33327" stroke="white" stroke-width="2" stroke-linecap="round" stroke-linejoin="round"/>
<path id="Vector_3" d="M9.5 5.54175V9.50008L12.6667 11.0834" stroke="white" stroke-width="2" stroke-linecap="round" stroke-linejoin="round"/>
</g>
</svg>
