<svg width="51" height="26" viewBox="0 0 51 26" fill="none" xmlns="http://www.w3.org/2000/svg">
<path d="M0 0L51 4.5V16.5L14 20.4902L16 25.5L11.5 20.7598L0 22V0Z" fill="#6153FF"/>
<path d="M2.66 14.22V6.63H6.37C8.82333 6.63 10.05 7.61 10.05 9.57V11.28C10.05 13.24 8.82333 14.22 6.37 14.22H2.66ZM4.05 13.03H6.36C7.89333 13.03 8.66 12.4167 8.66 11.19V9.66C8.66 8.43333 7.89333 7.82 6.36 7.82H4.05V13.03ZM11.3514 12.93V8.4H12.7414V12.74C12.7414 12.9533 12.8747 13.06 13.1414 13.06H16.0514V8.4H17.4414V14.22H12.9614C11.8881 14.22 11.3514 13.79 11.3514 12.93ZM18.5877 14.22V6.63H23.9077C25.0611 6.63 25.6377 7.09 25.6377 8.01V8.92C25.6377 9.52 25.3877 9.92667 24.8877 10.14C25.4611 10.3333 25.7477 10.7533 25.7477 11.4V12.84C25.7477 13.76 25.1744 14.22 24.0277 14.22H18.5877ZM19.9777 13.03H23.8977C24.2044 13.03 24.3577 12.9067 24.3577 12.66V11.13C24.3577 10.89 24.2044 10.77 23.8977 10.77H19.9777V13.03ZM19.9777 9.58H23.7877C24.0944 9.58 24.2477 9.45667 24.2477 9.21V8.19C24.2477 7.94333 24.0944 7.82 23.7877 7.82H19.9777V9.58ZM27.0936 12.93V8.4H28.4836V12.74C28.4836 12.9533 28.6169 13.06 28.8836 13.06H31.7936V8.4H33.1836V14.22H28.7036C27.6303 14.22 27.0936 13.79 27.0936 12.93ZM34.3299 12.93V9.69C34.3299 8.83 34.8666 8.4 35.9399 8.4H39.8499V9.56H36.1199C35.8533 9.56 35.7199 9.66667 35.7199 9.88V12.74C35.7199 12.9533 35.8533 13.06 36.1199 13.06H39.8499V14.22H35.9399C34.8666 14.22 34.3299 13.79 34.3299 12.93ZM40.9998 14.22V6.63H42.3898V11.2L44.9598 8.7H46.7598L44.3798 11.02L46.8798 14.22H45.2398L43.4498 11.93L42.3898 12.96V14.22H40.9998Z" fill="white"/>
</svg>
